HIERARCHY
ROOT root
{
	OFFSET	0	13.1	24.9
	CHANNELS 6  Xposition Yposition Zposition Xrotation Yrotation Zrotation
	JOINT spine_1
	{
		OFFSET	0	9.99999	0
		CHANNELS 3  Xrotation Yrotation Zrotation
		JOINT spine_2
		{
			OFFSET	0	112	-10
			CHANNELS 3  Xrotation Yrotation Zrotation
			JOINT spine_3
			{
				OFFSET	0	206.5	19.3
				CHANNELS 3  Xrotation Yrotation Zrotation
				JOINT spine_4
				{
					OFFSET	0	110.4	14.6
					CHANNELS 3  Xrotation Yrotation Zrotation
					JOINT neck_1
					{
						OFFSET	0	71.8	-50.3
						CHANNELS 3  Xrotation Yrotation Zrotation
						JOINT neck_2
						{
							OFFSET	0	86.2	-25.8
							CHANNELS 3  Xrotation Yrotation Zrotation
							JOINT head_ee
							{
								OFFSET	0	179.8	-8.7
								CHANNELS 3  Xrotation Yrotation Zrotation
								End Site
								{
									OFFSET	1	0	0
								}
							}
						}
					}
					JOINT left_clavicle
					{
						OFFSET	-43.2	22.4	-70.8
						CHANNELS 3  Xrotation Yrotation Zrotation
						JOINT left_shoulder
						{
							OFFSET	-93.9	-5.79999	48.7
							CHANNELS 3  Xrotation Yrotation Zrotation
							JOINT left_elbow
							{
								OFFSET	-291.4	-30.8	15.2
								CHANNELS 3  Xrotation Yrotation Zrotation
								JOINT left_lowarm_twist
								{
									OFFSET	-110.7	-3.89999	13.6
									CHANNELS 3  Xrotation Yrotation Zrotation
									JOINT left_hand
									{
										OFFSET	-110.7	-3.89999	13.6
										CHANNELS 3  Xrotation Yrotation Zrotation
										JOINT left_ee
										{
											OFFSET	-80.8	-5.10001	12.1
											CHANNELS 3  Xrotation Yrotation Zrotation
											End Site
											{
												OFFSET	1	0	0
											}
										}
									}
								}
							}
						}
					}
					JOINT right_clavicle
					{
						OFFSET	43.2	22.4	-70.8
						CHANNELS 3  Xrotation Yrotation Zrotation
						JOINT right_shoulder
						{
							OFFSET	93.9	-5.79999	48.7
							CHANNELS 3  Xrotation Yrotation Zrotation
							JOINT right_elbow
							{
								OFFSET	291.4	-30.8	15.2
								CHANNELS 3  Xrotation Yrotation Zrotation
								JOINT right_lowarm_twist
								{
									OFFSET	110.7	-3.89999	13.6
									CHANNELS 3  Xrotation Yrotation Zrotation
									JOINT right_hand
									{
										OFFSET	110.7	-3.89999	13.6
										CHANNELS 3  Xrotation Yrotation Zrotation
										JOINT right_ee
										{
											OFFSET	80.8	-5.10001	12.1
											CHANNELS 3  Xrotation Yrotation Zrotation
											End Site
											{
												OFFSET	1	0	0
											}
										}
									}
								}
							}
						}
					}
				}
			}
		}
	}
	JOINT left_hip
	{
		OFFSET	-82.8	-127.5	0.300001
		CHANNELS 3  Xrotation Yrotation Zrotation
		JOINT left_knee
		{
			OFFSET	-28.2	-396.7	2.2
			CHANNELS 3  Xrotation Yrotation Zrotation
			JOINT left_ankle
			{
				OFFSET	-11.7	-411.3	35.4
				CHANNELS 3  Xrotation Yrotation Zrotation
				JOINT left_toes
				{
					OFFSET	0	-60	-88.6
					CHANNELS 3  Xrotation Yrotation Zrotation
					JOINT left_foot_ee
					{
						OFFSET	-22.5	-16.5	-42.2
						CHANNELS 3  Xrotation Yrotation Zrotation
						End Site
						{
							OFFSET	1	0	0
						}
					}
				}
			}
		}
	}
	JOINT right_hip
	{
		OFFSET	82.8	-127.5	0.300001
		CHANNELS 3  Xrotation Yrotation Zrotation
		JOINT right_knee
		{
			OFFSET	28.2	-396.7	2.2
			CHANNELS 3  Xrotation Yrotation Zrotation
			JOINT right_ankle
			{
				OFFSET	11.7	-411.3	35.4
				CHANNELS 3  Xrotation Yrotation Zrotation
				JOINT right_toes
				{
					OFFSET	0	-60	-88.6
					CHANNELS 3  Xrotation Yrotation Zrotation
					JOINT right_foot_ee
					{
						OFFSET	22.5	-16.5	-42.2
						CHANNELS 3  Xrotation Yrotation Zrotation
						End Site
						{
							OFFSET	1	0	0
						}
					}
				}
			}
		}
	}
}
MOTION
Frames: 11
Frame Time: 0.02
3410.02 741.166 -1598.88 -6.04892 74.2802 5.08679 0.843213 0.819577 0.714465 0.843166 0.772454 0.765168 0.853712 0.60796 0.901414 0.853348 0.742688 0.794092 -3.54601 19.6377 -3.91529 -2.78553 38.8699 -1.22234 -0.0 0.0 -0.0 -0.413962 11.171 0.619199 -33.1731 -16.6934 64.5461 1.30276 -32.8346 0.383865 -30.3791 -1.99083 3.28763 -1.00404 11.9571 -1.42646 -0.0 0.0 -0.0 8.19802 21.6558 -15.2706 -4.32448 27.473 -61.229 1.20745 30.8838 -0.333548 14.8826 -0.282289 1.87483 1.02683 -7.59577 -9.87673 0.0 0.0 0.0 28.9594 1.02081 -6.27671 -42.6398 -0.643195 6.36382 10.9864 22.5468 -1.60897 27.1055 -0.0 -0.0 -0.0 0.0 -0.0 3.49565 -38.8472 0.777888 -15.6923 -0.322063 -2.37911 29.5941 30.3947 4.77975 11.8428 -0.0 -0.0 0.0 0.0 0.0 
3409.97 725.55 -1604.75 -9.74487 74.5257 8.98093 0.817588 0.842676 0.760146 0.81756 0.7926 0.812226 0.829054 0.618115 0.951763 0.828598 0.760666 0.842207 -3.58505 19.7478 -3.45411 -2.85811 38.7331 -0.702298 -0.0 0.0 -0.0 -1.05242 11.5629 -0.409136 -33.8436 -16.0345 64.7619 1.29178 -32.6141 0.377931 -30.1296 -1.96773 3.26551 -0.884869 11.4907 -0.875903 -0.0 0.0 -0.0 8.67694 21.8572 -16.3118 -0.517458 28.0149 -60.4274 1.23024 31.3578 -0.345327 15.7488 -0.283616 1.98546 1.04045 -5.61319 -9.20175 0.0 0.0 0.0 32.5009 -0.702013 -7.93581 -43.7777 -0.724427 6.51886 10.5915 22.5045 -1.55283 27.2651 -0.0 -0.0 -0.0 0.0 -0.0 2.46495 -38.8969 -0.369347 -14.3341 -0.320094 -2.17073 29.8258 31.377 4.87114 12.1135 -0.0 -0.0 0.0 0.0 0.0 
3405.72 726.933 -1609.44 -7.95961 75.2158 7.69448 0.775075 0.74299 0.870916 0.775235 0.686067 0.916426 0.786511 0.492456 1.03344 0.785609 0.649481 0.942707 -3.59659 20.0255 -3.24917 -2.86613 39.0918 -0.444163 -0.0 0.0 -0.0 -1.31762 11.8729 -0.811378 -34.2654 -15.6774 65.087 1.29393 -32.6574 0.379091 -29.9541 -1.95153 3.24988 -0.756814 11.2076 -0.185562 -0.0 0.0 -0.0 9.0273 21.9443 -17.0813 1.71455 28.2245 -60.4558 1.24614 31.6858 -0.353644 16.8015 -0.282978 2.11992 1.05288 -4.19602 -8.72964 0.0 0.0 0.0 34.0338 -1.83817 -8.82998 -44.013 -0.741606 6.55071 7.59982 21.901 -1.12154 26.7486 -0.0 -0.0 -0.0 0.0 -0.0 1.74607 -38.9223 -1.13982 -13.2223 -0.314807 -2.00024 29.2767 31.3637 4.79976 12.2985 -0.0 -0.0 0.0 0.0 0.0 
3395.32 729.252 -1609.07 -9.33012 75.6027 8.37728 0.754856 0.719975 1.22432 0.755462 0.640616 1.26764 0.77013 0.378447 1.36896 0.768 0.589881 1.29203 -4.37723 20.0525 -2.99012 -3.81262 39.0761 0.141666 -0.0 0.0 -0.0 -1.61068 12.1621 -1.25995 -34.8278 -15.4054 65.3278 1.29543 -32.6875 0.379898 -29.8265 -1.93978 3.23849 -0.667049 11.0095 0.300204 -0.0 0.0 -0.0 9.28079 22.0121 -17.639 3.41681 28.4061 -60.463 1.26891 32.1512 -0.36568 17.6761 -0.280569 2.2316 1.05347 -3.19354 -8.33726 0.0 0.0 0.0 36.4407 -2.88849 -9.85629 -42.9358 -0.664028 6.4043 5.05408 21.2854 -0.749306 26.23 -0.0 -0.0 -0.0 0.0 -0.0 0.0584997 -38.7846 -1.17077 -12.4541 -0.309222 -1.8825 29.2198 30.8502 4.76006 12.4284 -0.0 -0.0 0.0 0.0 0.0 
3394.28 734.707 -1612.22 -7.26873 75.44 6.33756 0.805698 0.699142 1.41504 0.806606 0.607692 1.45665 0.82264 0.310365 1.5475 0.819722 0.550842 1.47908 -4.98547 19.8939 -3.04171 -4.5439 38.9154 0.304717 -0.0 0.0 -0.0 -1.9522 12.5995 -1.76154 -35.2864 -14.8082 65.533 1.28606 -32.4988 0.374854 -29.7715 -1.93473 3.23358 -0.551632 10.8647 0.973353 -0.0 0.0 -0.0 9.597 22.0967 -18.3367 5.34055 28.5581 -59.7787 1.35417 33.8526 -0.412126 18.8078 -0.274922 2.37603 1.11191 -1.62775 -8.10429 0.0 0.0 0.0 37.8518 -3.98014 -9.82894 -41.9217 -0.593529 6.26518 1.68178 21.0477 -0.251246 25.5576 -0.0 -0.0 -0.0 0.0 -0.0 -0.120429 -38.6523 -1.86604 -12.1454 -0.306533 -1.83522 27.6142 30.6261 4.53662 12.3698 -0.0 -0.0 0.0 0.0 0.0 
3393.96 736.965 -1614.42 -8.3876 75.4936 7.54878 0.782941 0.659387 1.6046 0.784201 0.55596 1.6433 0.800839 0.222381 1.72046 0.797044 0.491267 1.66378 -5.54686 19.7703 -3.02774 -5.21952 38.7588 0.521485 -0.0 0.0 -0.0 -2.05916 12.9065 -1.88882 -35.502 -14.4103 65.7291 1.27947 -32.3655 0.371316 -29.7376 -1.93162 3.23054 -0.471034 10.7649 1.44486 -0.0 0.0 -0.0 9.87034 22.1349 -18.9444 6.72577 28.6629 -59.3668 1.41582 35.042 -0.446997 19.6187 -0.269123 2.47943 1.15738 -0.462874 -7.94137 0.0 0.0 0.0 38.6814 -4.97927 -10.1139 -40.9452 -0.52799 6.13007 -0.68582 20.8159 0.102916 25.0617 -0.0 -0.0 -0.0 0.0 -0.0 -0.143574 -38.558 -2.43961 -11.9335 -0.304539 -1.80275 26.4389 30.4626 4.36939 12.3256 -0.0 -0.0 0.0 0.0 0.0 
3387.84 736.149 -1616.78 -11.3052 76.0435 10.9954 0.793758 0.616745 1.72782 0.795277 0.505567 1.76355 0.811578 0.14967 1.82845 0.807179 0.436515 1.78189 -6.06006 19.679 -2.97324 -5.8369 38.622 0.764986 -0.0 0.0 -0.0 -2.13441 13.1217 -1.97753 -35.6537 -14.135 65.8725 1.27309 -32.2362 0.367909 -29.728 -1.93074 3.22968 -0.415497 10.7083 1.77527 -0.0 0.0 -0.0 10.133 22.1351 -19.5329 8.12654 28.8217 -59.1228 1.47877 36.222 -0.483675 20.2143 -0.263931 2.55534 1.19414 0.427485 -7.8285 0.0 0.0 0.0 38.431 -5.56324 -10.1445 -40.2587 -0.483308 6.03446 -2.45171 20.6486 0.369028 24.6937 -0.0 -0.0 -0.0 0.0 -0.0 -0.0772777 -38.487 -2.82959 -11.7391 -0.302605 -1.773 25.5795 30.3427 4.24517 12.2795 -0.0 -0.0 0.0 0.0 0.0 
3373.89 723.238 -1611.65 -12.8872 76.0653 12.1145 0.858682 0.553638 1.85898 0.8605 0.434246 1.89043 0.875575 0.0569632 1.93881 0.870513 0.362391 1.9055 -6.33078 18.9842 -4.70016 -6.09443 38.5942 -1.03061 -0.0 0.0 -0.0 -2.21572 13.7474 -2.00503 -37.3811 -13.5064 66.5695 1.25284 -31.8232 0.357168 -30.1339 -1.96812 3.26589 -0.382774 10.5177 1.90443 -0.0 0.0 -0.0 10.2499 21.8946 -19.8157 10.187 29.2152 -58.675 1.56615 37.8024 -0.536278 20.5736 -0.260418 2.60109 1.29031 3.50704 -7.21471 0.0 0.0 0.0 39.8102 -6.35403 -10.4017 -32.8786 -0.0769105 4.97656 -14.5368 19.9378 2.22053 21.7044 -0.0 -0.0 -0.0 0.0 -0.0 -1.2935 -33.3245 -1.88255 -11.6093 -0.301257 -1.75312 25.3896 30.0515 4.20307 12.6019 -0.0 -0.0 0.0 0.0 0.0 
3357.73 713.599 -1612.03 -11.2544 76.1919 10.3209 0.852109 0.350547 1.78821 0.853857 0.236068 1.80688 0.861878 -0.121634 1.81817 0.857303 0.16699 1.81457 -6.47602 18.4427 -5.91288 -6.21025 38.4626 -2.32688 -0.0 0.0 -0.0 -2.33 13.9724 -2.15346 -38.6138 -13.113 67.0 1.23838 -31.5261 0.349576 -30.4167 -1.99433 3.29096 -0.355826 10.3894 2.02308 -0.0 0.0 -0.0 10.3196 21.7092 -19.9877 11.4758 29.4417 -58.3504 1.62499 38.8301 -0.572761 20.8275 -0.257761 2.63342 1.36282 5.74315 -6.77214 0.0 0.0 0.0 39.4286 -6.8206 -10.261 -27.4446 0.133431 4.16947 -23.0187 19.1855 3.52167 19.5492 -0.0 -0.0 -0.0 0.0 -0.0 -1.68897 -29.2824 -1.17181 -11.5228 -0.300334 -1.73988 25.2664 29.847 4.17508 12.7177 -0.0 -0.0 0.0 0.0 0.0 
3344.07 708.515 -1602.63 -16.2638 76.4909 14.6652 1.04616 0.245904 1.96889 1.04831 0.120146 1.98054 1.05294 -0.262783 1.96671 1.04755 0.0510565 1.98352 -6.17997 17.6854 -6.61112 -5.82532 37.5336 -3.31967 -0.0 0.0 -0.0 -1.68078 14.2126 -1.05401 -39.4813 -12.6772 67.2392 1.14237 -29.5044 0.300817 -31.4955 -2.09541 3.38542 -0.290808 8.81874 1.78535 -0.0 0.0 -0.0 10.5163 21.1225 -20.4777 12.362 28.9218 -57.7725 1.66809 39.5645 -0.600002 20.8337 -0.257695 2.63421 1.61607 9.67781 -6.81336 0.0 0.0 0.0 38.9267 -7.13244 -10.1584 -23.2844 0.242199 3.54043 -23.8903 17.8374 3.64026 15.4672 -0.0 -0.0 -0.0 0.0 -0.0 -1.59115 -22.7671 -1.89528 -9.79915 -0.277774 -1.47638 27.2111 23.1933 4.11805 11.3081 -0.0 -0.0 0.0 0.0 0.0 
3334.58 710.945 -1610.88 -21.3747 76.2262 20.0427 1.35228 0.123334 1.97029 1.35444 -0.00226593 1.97414 1.35458 -0.371545 1.93888 1.34934 -0.0607343 1.97321 -5.96654 17.0766 -6.96917 -5.56148 36.6501 -3.89229 -0.0 0.0 -0.0 -1.36016 13.7362 -0.604136 -39.9709 -12.158 66.6245 1.07055 -27.9372 0.266303 -32.2104 -2.16337 3.44696 -0.25134 7.81807 1.6229 -0.0 0.0 -0.0 10.9489 20.8527 -21.4757 13.0234 28.5542 -57.39 1.70083 40.1122 -0.62098 20.9182 -0.256777 2.64497 1.74398 12.4519 -6.46739 0.0 0.0 0.0 38.5402 -7.87858 -10.651 -16.0611 0.321744 2.43569 -23.7396 17.5984 3.61488 12.5488 -0.0 -0.0 -0.0 0.0 -0.0 -1.5716 -18.175 -2.47327 -9.10989 -0.266536 -1.37121 28.5515 18.5009 4.10768 10.3049 -0.0 -0.0 0.0 0.0 0.0 
